<?xml version="1.0" standalone="no"?>
<!DOCTYPE svg PUBLIC "-//W3C//DTD SVG 20010904//EN"
 "http://www.w3.org/TR/2001/REC-SVG-20010904/DTD/svg10.dtd">
<svg version="1.0" xmlns="http://www.w3.org/2000/svg"
 width="347.000000pt" height="57.000000pt" viewBox="0 0 347.000000 57.000000"
 preserveAspectRatio="xMidYMid meet">

<g transform="translate(0.000000,57.000000) scale(0.100000,-0.100000)"
fill="#ffffff" stroke="none">
<path d="M1013 425 c-12 -8 -24 -29 -28 -46 -4 -17 -21 -47 -38 -67 -26 -30
-26 -33 -5 -14 l26 24 -9 -39 c-12 -51 -12 -52 9 -46 10 2 24 19 30 37 13 36
48 73 59 63 3 -4 1 -25 -6 -47 -13 -42 -9 -60 13 -60 17 0 69 40 62 48 -3 2
-12 -1 -21 -8 -23 -19 -28 -7 -15 39 17 64 -4 79 -54 40 -14 -11 -26 -16 -26
-11 0 6 6 13 13 15 9 4 9 6 0 6 -14 1 3 61 18 61 13 0 11 -24 -3 -38 -6 -6 -9
-14 -6 -17 9 -9 40 46 34 61 -7 18 -26 18 -53 -1z"/>
<path d="M2105 415 c-14 -13 -25 -33 -25 -45 0 -11 -17 -39 -37 -62 -33 -38
-33 -40 -5 -14 l32 29 -10 -34 c-6 -19 -10 -40 -10 -47 0 -22 39 6 46 32 6 27
50 73 60 63 3 -3 1 -22 -6 -42 -13 -40 -8 -65 13 -65 18 0 67 38 67 52 0 6 -9
3 -20 -7 -28 -25 -35 -12 -21 36 18 60 3 71 -52 40 -29 -17 -38 -19 -28 -8 7
9 11 17 8 17 -3 0 -1 14 4 30 6 17 15 30 20 30 13 0 11 -13 -7 -40 -17 -24
-16 -24 11 2 17 16 26 32 22 42 -9 23 -34 20 -62 -9z"/>
<path d="M2763 425 c-12 -8 -24 -29 -28 -46 -4 -17 -21 -47 -38 -67 -26 -30
-26 -33 -5 -14 l26 24 -9 -39 c-12 -51 -12 -52 9 -46 10 2 24 19 30 37 13 36
48 73 59 63 3 -4 1 -25 -6 -47 -13 -42 -9 -60 13 -60 17 0 69 40 62 48 -3 2
-12 -1 -21 -8 -23 -19 -28 -7 -15 39 17 64 -4 79 -54 40 -14 -11 -26 -16 -26
-11 0 6 6 13 13 15 9 4 9 6 0 6 -14 1 3 61 18 61 13 0 11 -24 -3 -38 -6 -6 -9
-14 -6 -17 9 -9 40 46 34 61 -7 18 -26 18 -53 -1z"/>
<path d="M124 415 c-18 -14 -18 -14 3 -9 19 5 22 1 28 -41 4 -25 5 -66 2 -91
-6 -59 13 -58 70 4 62 66 86 114 69 137 -9 13 -20 16 -39 11 -15 -3 -27 -10
-27 -15 0 -5 9 -7 20 -4 30 8 26 -25 -11 -80 -17 -26 -34 -49 -37 -51 -4 -2
-7 27 -7 65 0 51 -4 72 -15 79 -21 13 -33 12 -56 -5z"/>
<path d="M1450 420 c-12 -8 -12 -10 2 -15 20 -8 41 2 33 16 -8 11 -16 11 -35
-1z"/>
<path d="M1903 415 c-66 -29 -98 -136 -51 -169 12 -9 33 -16 46 -16 28 0 82
27 82 40 0 15 -16 12 -30 -5 -7 -8 -25 -15 -41 -15 -22 0 -30 6 -35 26 -14 56
32 140 73 132 25 -5 31 -41 6 -36 -10 1 -20 -2 -23 -7 -10 -20 37 -15 55 5 39
43 -17 74 -82 45z"/>
<path d="M443 370 c-54 -11 -88 -34 -103 -70 -26 -62 7 -88 57 -46 29 24 29
25 29 3 -1 -31 27 -32 60 -3 16 14 24 26 17 26 -6 0 -15 -4 -18 -10 -11 -19
-25 -10 -25 15 0 14 7 41 14 60 8 19 14 35 13 34 -1 -1 -21 -5 -44 -9z m-3
-34 c0 -20 -49 -76 -66 -76 -19 0 -17 19 6 58 20 33 60 45 60 18z"/>
<path d="M595 370 c-21 -8 -84 -70 -71 -70 4 0 18 12 32 28 l26 27 -6 -32 c-3
-18 -9 -47 -12 -64 -7 -29 -6 -31 14 -20 11 6 23 24 27 40 6 29 50 79 61 69 3
-3 0 -24 -7 -46 -13 -44 -7 -72 14 -72 18 0 67 38 67 52 0 6 -9 3 -20 -7 -28
-25 -35 -13 -24 38 17 73 -1 86 -56 41 l-31 -27 7 27 c3 14 5 26 3 25 -2 0
-13 -4 -24 -9z"/>
<path d="M827 369 c-14 -8 -17 -18 -12 -36 5 -20 -1 -32 -32 -60 -21 -19 -30
-30 -21 -23 14 10 21 9 33 -4 22 -22 61 -20 85 4 25 25 25 32 0 55 -19 17 -19
20 -4 36 29 32 -7 52 -49 28z m41 -21 c-6 -18 -28 -21 -28 -4 0 9 7 16 16 16
9 0 14 -5 12 -12z m-8 -63 c14 -17 5 -35 -19 -35 -26 0 -44 23 -29 38 16 16
33 15 48 -3z"/>
<path d="M1280 365 c-7 -8 -10 -26 -6 -40 8 -33 -9 -65 -36 -65 -18 0 -20 4
-15 33 4 17 9 42 13 55 4 13 2 22 -5 22 -15 0 -93 -71 -85 -79 3 -3 16 7 29
23 l23 29 -2 -54 c-1 -48 1 -54 20 -57 21 -3 84 41 84 59 0 5 15 23 33 39 17
16 27 30 20 30 -6 0 -15 -4 -18 -10 -9 -15 -25 -12 -25 4 0 22 -16 28 -30 11z"/>
<path d="M1445 370 c-21 -8 -84 -70 -71 -70 4 0 18 12 32 28 l25 27 -6 -29
c-18 -82 -18 -86 0 -92 18 -7 66 23 73 47 3 9 -2 8 -17 -5 -31 -28 -36 -14
-19 49 16 57 15 59 -17 45z"/>
<path d="M1585 370 c-25 -10 -83 -70 -68 -70 6 0 21 12 33 28 l21 27 -5 -32
c-3 -18 -9 -47 -12 -63 -6 -26 -4 -29 10 -24 20 8 47 69 40 88 -3 8 -1 24 6
35 11 22 7 25 -25 11z"/>
<path d="M1632 357 c-27 -29 -29 -46 -2 -22 16 15 22 16 35 5 14 -11 19 -10
37 8 21 21 21 21 1 16 -11 -3 -24 -1 -27 5 -10 16 -20 14 -44 -12z"/>
<path d="M2360 369 c-57 -11 -113 -66 -108 -107 4 -36 29 -39 67 -7 l31 27 0
-26 c0 -15 6 -26 14 -26 17 0 66 38 66 52 0 6 -8 4 -18 -5 -10 -10 -22 -17
-25 -17 -11 0 -8 35 8 79 8 22 13 41 12 40 -1 -1 -22 -5 -47 -10z m0 -30 c0
-6 -8 -24 -17 -40 -29 -49 -71 -50 -52 -1 6 14 15 32 21 39 13 16 48 17 48 2z"/>
<path d="M3018 370 c-50 -9 -86 -34 -105 -75 -13 -28 -14 -37 -3 -50 18 -21
33 -19 64 11 25 25 26 26 26 6 0 -11 5 -24 11 -28 13 -7 61 25 67 47 3 9 -2 8
-17 -5 -31 -28 -37 -13 -18 46 9 29 15 52 14 53 -1 1 -18 -2 -39 -5z m-5 -37
c-12 -33 -44 -73 -59 -73 -21 0 -17 33 7 64 24 30 62 37 52 9z"/>
<path d="M3165 370 c-25 -10 -83 -70 -68 -70 6 0 21 12 33 28 l21 27 -5 -32
c-3 -18 -9 -47 -12 -63 -10 -45 21 -29 44 24 19 42 48 73 59 63 3 -4 0 -26 -7
-51 -13 -46 -8 -66 14 -66 18 0 66 39 66 52 0 6 -9 3 -20 -7 -28 -25 -34 -13
-21 40 18 71 -3 85 -58 39 -33 -27 -38 -25 -21 7 11 20 6 22 -25 9z"/>
<path d="M2480 334 c-22 -20 -38 -39 -36 -42 3 -2 17 9 31 24 16 17 25 22 21
12 -17 -55 -18 -88 -2 -94 18 -7 66 20 66 38 0 9 -3 9 -12 0 -29 -29 -34 0
-12 76 9 32 -10 28 -56 -14z"/>
<path d="M2605 362 c-17 -12 -41 -76 -37 -100 5 -33 27 -37 62 -12 34 24 35
39 1 19 -30 -19 -35 -6 -17 47 9 26 16 49 16 51 0 6 -15 3 -25 -5z"/>
</g>
</svg>
